<svg id="icon-logo" viewBox="0 0 359.38 171.4" width="100%" height="100%" fill="#641934">
<title>Asset 1</title>
<g id="Layer_2" data-name="Layer 2"><g id="Layer_1-2" data-name="Layer 1">

<path class="cls-1" d="M296.75,0V12.34h29.76V0Zm0,171.4h29.76V159H296.75Zm0-40.94h29.76v-10.8H296.75Zm0-59.06h29.76V60.61H296.75Zm0,39.37h29.76V100H296.75Zm0-59.06h29.76V40.92H296.75Zm0-19.69h29.76V21.23H296.75Zm0,118.12h29.76V139.35H296.75Zm0-59.05h29.76V80.29H296.75Z"></path><path class="cls-1" d="M185.71,21.23H140.92V32h52.43ZM170.69,0H140.92V12.34h38.49Z"></path><path class="cls-1" d="M74.23,159a30,30,0,0,1-3.57.22,29.69,29.69,0,0,1-3.54-.22H0V171.4H92.33v-.07A40.18,40.18,0,0,0,118.91,159Z"></path><rect class="cls-1" y="99.98" width="29.76" height="10.79"></rect><rect class="cls-1" y="40.92" width="29.76" height="10.79"></rect><rect class="cls-1" y="60.61" width="29.76" height="10.79"></rect><rect class="cls-1" y="21.23" width="29.76" height="10.79"></rect><rect class="cls-1" y="119.67" width="29.76" height="10.8"></rect><rect class="cls-1" y="139.35" width="29.76" height="10.79"></rect><path class="cls-1" d="M70.66,159.26a30,30,0,0,0,3.57-.22H67.12A29.69,29.69,0,0,0,70.66,159.26Z"></path><path class="cls-1" d="M126.87,110.77A42.83,42.83,0,0,0,119.64,100H88.09a32.12,32.12,0,0,1,9.73,10.79Z"></path><path class="cls-1" d="M101.18,119.67a33.79,33.79,0,0,1,.79,7.21,35.31,35.31,0,0,1-.19,3.59h29.09c0-.45,0-.9,0-1.35a44,44,0,0,0-1-9.45Z"></path><path class="cls-1" d="M92.42,150.14h33.06a42.59,42.59,0,0,0,4.2-10.79H99.56A32.56,32.56,0,0,1,92.42,150.14Z"></path><path class="cls-1" d="M91.63,44.25a36,36,0,0,1-.79,7.47H119a46.93,46.93,0,0,0,.67-7.87c0-1,0-2-.1-2.93H91.48C91.59,42,91.63,43.12,91.63,44.25Z"></path><path class="cls-1" d="M89.49,32h28.66a44.79,44.79,0,0,0-4.33-10.79H83.12A34.07,34.07,0,0,1,89.49,32Z"></path><path class="cls-1" d="M78.73,71.4h31.85a44.32,44.32,0,0,0,6-10.79H87.66A33.06,33.06,0,0,1,78.73,71.4Z"></path><path class="cls-1" d="M50.61,12.34H107.2A39.53,39.53,0,0,0,81.94.14V0H0V12.34H50.61Z"></path><path class="cls-1" d="M90,86.82a39.38,39.38,0,0,0-4.31.24,39.09,39.09,0,0,0,15.82-6.77H0v10.8H107.92A39.57,39.57,0,0,0,90,86.82Z"></path><path class="cls-1" d="M50.22,12.47l.39-.13h-.25Z"></path><rect class="cls-1" x="140.92" y="119.67" width="15.3" height="10.8"></rect><rect class="cls-1" x="140.92" y="80.29" width="15.3" height="10.8"></rect><rect class="cls-1" x="140.92" y="159.04" width="15.3" height="12.37"></rect><rect class="cls-1" x="140.92" y="139.35" width="15.3" height="10.79"></rect><rect class="cls-1" x="140.92" y="60.61" width="15.3" height="10.79"></rect><rect class="cls-1" x="140.92" y="99.98" width="15.3" height="10.79"></rect><rect class="cls-1" x="263.87" y="80.29" width="15.31" height="10.8"></rect><rect class="cls-1" x="263.87" y="60.61" width="15.31" height="10.79"></rect><rect class="cls-1" x="263.87" y="40.92" width="15.31" height="10.79"></rect><rect class="cls-1" x="263.87" width="15.31" height="12.34"></rect><rect class="cls-1" x="263.87" y="21.23" width="15.31" height="10.79"></rect><rect class="cls-1" x="263.87" y="99.98" width="15.31" height="10.79"></rect><polygon class="cls-1" points="227.5 80.29 184.94 80.29 192.58 91.09 235.13 91.09 227.5 80.29"></polygon><polygon class="cls-1" points="198.87 99.98 206.51 110.77 249.06 110.77 241.42 99.98 198.87 99.98"></polygon><polygon class="cls-1" points="213.56 60.61 171.02 60.61 178.66 71.4 221.21 71.4 213.56 60.61"></polygon><polygon class="cls-1" points="249.41 159.04 240.66 159.04 249.41 171.4 249.41 171.4 249.41 171.4 279.18 171.4 279.18 159.04 269.78 159.04 249.41 159.04"></polygon><polygon class="cls-1" points="249.41 139.35 226.74 139.35 234.38 150.15 249.41 150.15 276.93 150.15 279.18 150.15 279.18 139.35 269.28 139.35 249.41 139.35"></polygon><polygon class="cls-1" points="156.22 60.61 156.56 60.61 156.22 60.14 156.22 60.61"></polygon><polygon class="cls-1" points="263.87 111.27 263.87 110.77 263.52 110.77 263.87 111.27"></polygon><path class="cls-1" d="M343.22,17.6V6.92H348a6.27,6.27,0,0,1,2.17.29,2.37,2.37,0,0,1,1.18,1,3,3,0,0,1,.45,1.61,2.7,2.7,0,0,1-.74,1.92,3.69,3.69,0,0,1-2.27,1,3.6,3.6,0,0,1,.84.53,7,7,0,0,1,1.18,1.42l1.84,2.91h-1.77l-1.41-2.22c-.42-.64-.75-1.13-1-1.47a3.21,3.21,0,0,0-.72-.72,2.14,2.14,0,0,0-.64-.28,4.1,4.1,0,0,0-.78-.05h-1.64V17.6Zm1.42-6h3a4.53,4.53,0,0,0,1.51-.2,1.66,1.66,0,0,0,.84-.64,1.82,1.82,0,0,0,.28-1,1.6,1.6,0,0,0-.55-1.25A2.56,2.56,0,0,0,348,8.1h-3.37Z"></path><path class="cls-1" d="M335.44,12.16a12,12,0,1,0,12-12A12,12,0,0,0,335.44,12.16Zm1.8,0a10.17,10.17,0,1,1,10.17,10.17A10.18,10.18,0,0,1,337.24,12.16Z"></path><polygon class="cls-1" points="164.72 51.72 170.69 51.72 207.28 51.72 199.64 40.92 170.69 40.92 157.09 40.92 156.87 40.92 164.63 51.72 164.72 51.72"></polygon><rect class="cls-1" x="140.92" y="40.92" width="15.3" height="10.79"></rect><polygon class="cls-1" points="212.8 119.67 220.45 130.46 263.25 130.46 255.48 119.67 212.8 119.67"></polygon><rect class="cls-1" x="263.81" y="119.67" width="15.37" height="10.8"></rect></g></g></svg>
